<!DOCTYPE svg PUBLIC "-//W3C//DTD SVG 1.1//EN" "http://www.w3.org/Graphics/SVG/1.1/DTD/svg11.dtd">
<!-- Uploaded to: SVG Repo, www.svgrepo.com, Transformed by: SVG Repo Mixer Tools -->
<svg height="191px" width="191px" version="1.1" id="_x32_" xmlns="http://www.w3.org/2000/svg" xmlns:xlink="http://www.w3.org/1999/xlink" viewBox="-30.72 -30.72 573.44 573.44" xml:space="preserve" fill="#ededed" stroke="#ededed" stroke-width="27.648000000000003" transform="matrix(1, 0, 0, 1, 0, 0)rotate(0)">
<g id="SVGRepo_bgCarrier" stroke-width="0"/>
<g id="SVGRepo_tracerCarrier" stroke-linecap="round" stroke-linejoin="round" stroke="#e0e0e0" stroke-width="48.128"> <style type="text/css"> .st0{fill:#fcfcfc;} </style> <g> <path class="st0" d="M270.867,0.859c-53.963,6.222-60.129,90.996-85.451,117.894c-30.7,32.61-101.742,20.565-101.742,140.5 C83.674,398.844,151.313,512,255.995,512c104.69,0,172.331-113.156,172.331-252.747C428.326,119.662,381.594-11.908,270.867,0.859z "/> </g> </g>
<g id="SVGRepo_iconCarrier"> <style type="text/css"> .st0{fill:#fcfcfc;} </style> <g> <path class="st0" d="M270.867,0.859c-53.963,6.222-60.129,90.996-85.451,117.894c-30.7,32.61-101.742,20.565-101.742,140.5 C83.674,398.844,151.313,512,255.995,512c104.69,0,172.331-113.156,172.331-252.747C428.326,119.662,381.594-11.908,270.867,0.859z "/> </g> </g>
</svg>