<svg xmlns="http://www.w3.org/2000/svg" data-name="Layer 1" viewBox="0 0 120 150" x="0px" y="0px"><title>maps6</title><path fill="#f5f5f5" d="M73,65.57a1,1,0,0,0-.75-.76l-2.52-.59.1-7.46a1,1,0,0,0-.67-1,1,1,0,0,0-1.12.34L64.8,60.3H48L37.81,54.13a.85.85,0,0,0-.26-.11l-7.21-1.91L27,48.47a1.05,1.05,0,0,0-.3-.22L15.58,42.73a1,1,0,0,0-1.05.1l-1.32,1a1,1,0,0,0-.4.8v1.79l-2.13,5.1a1,1,0,0,0,.47,1.28l8.31,4.26,5,3.7a1,1,0,0,0,.48.18l4.24.51L31,63.57a1,1,0,0,0,.76.35h3l1.57,1.67a1,1,0,0,0,.33.23l17.09,7.39a1.11,1.11,0,0,0,.26.07l10.36,1.43h.24l6.4-.66a1,1,0,0,0,.89-1V70.5l1.33-.91a1,1,0,0,0,.41-1Zm-2.64,3.58a1,1,0,0,0-.44.83v2.18l-5.37.56-10.11-1.4L37.66,64.07l-1.74-1.84a1,1,0,0,0-.72-.31h-3l-1.8-2.08a1,1,0,0,0-.64-.34L25.44,59l-4.86-3.59-.14-.08-7.55-3.88L14.73,47a.84.84,0,0,0,.08-.38V45.12l.43-.32L25.66,50l3.4,3.71a.94.94,0,0,0,.48.3l7.36,1.94,10.35,6.25a1,1,0,0,0,.51.14H65.29a1,1,0,0,0,.79-.38l1.7-2.2L67.71,65a1,1,0,0,0,.77,1l2.7.63.37,1.7Z"/><path fill="#f5f5f5" d="M107.08,49V42.53a1,1,0,0,0-.24-.65l-2.19-2.58V37a1,1,0,0,0-.44-.84l-4-2.64a1,1,0,0,0-.5-.17l-14.16-.74-2.37-3.55a1,1,0,0,0-.42-.36L80,27.48l-1.31-4.63a1,1,0,0,0-.78-.71,1,1,0,0,0-1,.39L74.6,25.65H73.12a1,1,0,0,0-.93.64l-2.76,6.94a1,1,0,0,0,0,.78,1,1,0,0,0,.58.53L85.51,40l-3.26,6.71a1,1,0,0,0-.09.56l.77,6.5a1,1,0,0,0,.54.78l2.44,1.21L87.2,62l-1,4.8-3.82,1.67a1,1,0,0,0-.58.71l-1,5-2.31.08a1,1,0,0,0-.74.37,1,1,0,0,0-.21.8L78.31,80a1,1,0,0,0,.62.76l1.62.63L82.36,85a1,1,0,0,0,.49.47l2.88,1.29,2.58,4.86-.84,3.15a1,1,0,0,0,.2.9l1.54,1.87a1,1,0,0,0,.74.36h0a1,1,0,0,0,.73-.31l6.39-6.72a.87.87,0,0,0,.16-.23l5.41-10.36a1.76,1.76,0,0,0,.1-.3l.6-3.72,2-1.75a1,1,0,0,0,.31-1l-1.35-4.66,5-14.81a1,1,0,0,0-.06-.78Zm-4.71,19.44a1.08,1.08,0,0,0,0,.59l1.26,4.34L101.79,75a1,1,0,0,0-.34.6l-.63,3.92L95.56,89.56,90,95.37l-.5-.61.8-3a1,1,0,0,0-.08-.73l-2.92-5.51a1,1,0,0,0-.47-.44L84,83.76l-1.82-3.65a1,1,0,0,0-.53-.48l-1.46-.57-.48-2.83,1.94-.07a1,1,0,0,0,.94-.8l1.11-5.22,3.83-1.67a1,1,0,0,0,.58-.72l1.1-5.51a.9.9,0,0,0,0-.4l-1.43-7a1,1,0,0,0-.54-.69L84.85,53l-.67-5.68,3.62-7.45a1,1,0,0,0,0-.82,1,1,0,0,0-.59-.56L71.67,33l2.13-5.35h1.3a1,1,0,0,0,.8-.4l1.43-1.91.89,3.13a1,1,0,0,0,.55.64l2.94,1.31,2.48,3.73a1,1,0,0,0,.78.45l14.39.75,3.29,2.2v2.11a1,1,0,0,0,.24.65l2.19,2.58v6.36a1.12,1.12,0,0,0,.11.47l2.12,4Z"/><path fill="#f5f5f5" d="M101.5,63.09a1,1,0,0,0-1.27.63l-.48,1.45a1,1,0,0,0,.63,1.27,1.13,1.13,0,0,0,.32,0,1,1,0,0,0,.94-.68l.49-1.45A1,1,0,0,0,101.5,63.09Z"/><path fill="#f5f5f5" d="M103,43.46a1,1,0,0,0-.24-.65l-2.19-2.59V37.94a1,1,0,0,0-.44-.83l-1.08-.71A1,1,0,1,0,98,38.06l.62.42v2.11a1,1,0,0,0,.24.65L101,43.82v6.36a1.12,1.12,0,0,0,.11.47l2.12,4-2,5.86a1,1,0,0,0,.63,1.27.89.89,0,0,0,.32,0,1,1,0,0,0,1-.68l2.1-6.27a1,1,0,0,0-.06-.78l-2.2-4.2Z"/></svg>