<?xml version="1.0" standalone="no"?>
<!DOCTYPE svg PUBLIC "-//W3C//DTD SVG 20010904//EN"
 "http://www.w3.org/TR/2001/REC-SVG-20010904/DTD/svg10.dtd">
<svg version="1.0" xmlns="http://www.w3.org/2000/svg"
 width="1350.000000pt" height="243.000000pt" viewBox="0 0 1350.000000 243.000000"
 preserveAspectRatio="xMidYMid meet">
<metadata>
Created by potrace 1.10, written by Peter Selinger 2001-2011
</metadata>
<g transform="translate(0.000000,243.000000) scale(0.100000,-0.100000)"
fill="#000000" stroke="none">
<path d="M12495 2360 c-44 -4 -93 -13 -108 -19 -16 -6 -39 -11 -52 -11 -35 0
-144 -47 -213 -92 -24 -15 -46 -28 -50 -28 -4 0 -37 -30 -73 -67 -64 -66 -129
-176 -129 -219 0 -11 -7 -41 -15 -68 -19 -63 -19 -124 0 -222 19 -94 38 -142
83 -209 37 -55 157 -175 174 -175 6 0 19 -6 27 -14 25 -22 189 -104 224 -112
17 -3 38 -10 47 -15 14 -7 52 -19 180 -55 240 -68 353 -117 401 -172 98 -112
92 -249 -18 -372 -30 -34 -136 -87 -212 -107 -78 -19 -314 -28 -371 -13 -25 6
-63 15 -85 20 -52 11 -112 33 -189 70 -63 31 -71 36 -145 83 -24 15 -51 27
-60 25 -22 -4 -130 -224 -131 -265 0 -34 36 -70 115 -112 22 -12 47 -26 55
-31 53 -30 200 -80 345 -116 94 -24 400 -23 507 1 79 18 188 50 216 63 9 5 39
20 66 33 74 37 191 142 241 217 25 37 45 74 45 83 0 9 6 29 14 45 26 53 41
225 27 307 -50 287 -205 435 -566 541 -33 10 -78 24 -100 31 -22 6 -67 20
-100 29 -227 65 -313 98 -364 142 -122 105 -106 310 31 390 121 71 179 84 372
84 134 0 147 -2 250 -35 60 -19 114 -39 120 -44 11 -9 169 -64 216 -74 14 -4
30 -3 37 1 7 5 12 63 14 176 l3 170 -39 20 c-64 34 -200 75 -333 101 -95 19
-337 27 -457 15z"/>
<path d="M99 2325 c0 0 -1 -69 -2 -153 -2 -128 1 -156 14 -168 13 -11 74 -13
365 -11 l349 2 0 -937 c0 -515 3 -939 7 -943 8 -8 347 -10 354 -2 3 3 7 426 7
939 l2 933 339 2 c239 2 342 6 352 14 11 9 14 44 14 153 0 77 -4 147 -9 155
-8 13 -369 16 -1792 16z"/>
<path d="M10456 2315 c-3 -8 -6 -490 -7 -1072 -1 -582 -2 -1074 -3 -1093 l-1
-35 175 0 175 0 2 650 c1 358 3 852 3 1098 1 247 0 450 -3 453 -2 3 -79 6
-170 8 -133 3 -167 1 -171 -9z"/>
<path d="M2842 2307 c-8 -9 -12 -183 -13 -588 -2 -825 1 -1580 7 -1604 5 -21
10 -21 166 -19 88 2 163 6 166 9 3 3 6 173 6 378 l1 372 254 0 253 0 31 -55
c16 -30 40 -73 53 -95 12 -22 32 -58 44 -80 12 -22 35 -59 51 -83 16 -24 29
-45 29 -48 0 -3 11 -20 24 -37 20 -27 79 -131 160 -281 11 -21 31 -49 44 -61
23 -24 25 -24 200 -19 97 3 183 7 190 10 20 6 14 34 -18 74 -16 21 -30 41 -30
44 0 4 -19 37 -43 74 -24 37 -47 74 -51 82 -10 22 -26 47 -74 118 -23 35 -42
65 -42 67 0 2 -13 24 -30 48 -16 25 -30 50 -30 56 0 6 -4 11 -9 11 -5 0 -13
10 -16 23 -8 26 -58 108 -97 158 -15 20 -28 41 -28 46 0 6 15 17 33 25 178 83
246 129 295 201 90 131 106 167 132 287 14 65 11 274 -4 355 -19 97 -64 202
-104 243 -9 10 -33 38 -54 63 -73 91 -197 162 -353 202 -98 26 -139 28 -646
33 -398 4 -488 2 -497 -9z m993 -323 c28 -9 65 -23 83 -30 18 -8 39 -14 47
-14 9 0 46 -30 83 -67 86 -85 106 -140 106 -283 -1 -93 -12 -145 -48 -215 -21
-42 -85 -115 -110 -126 -12 -5 -34 -17 -51 -28 -16 -10 -57 -27 -90 -39 -55
-19 -85 -20 -360 -22 -165 -1 -304 -1 -310 -1 -7 1 -9 146 -8 418 1 230 2 419
2 420 1 2 137 3 304 3 250 0 311 -3 352 -16z"/>
<path d="M7513 2303 c-3 -7 29 -81 70 -165 88 -180 177 -368 177 -375 0 -2 21
-48 46 -101 26 -53 59 -124 74 -157 16 -33 56 -117 89 -188 34 -70 61 -130 61
-132 0 -3 15 -37 34 -77 18 -40 48 -104 66 -143 31 -69 173 -360 333 -687 94
-193 105 -200 143 -108 82 201 112 278 117 300 6 26 49 163 68 215 23 61 22
82 -1 102 -12 10 -39 33 -59 52 -20 18 -52 44 -71 56 -19 12 -70 54 -112 94
-87 81 -78 65 -355 651 -25 52 -65 135 -89 183 -24 49 -42 93 -39 98 4 5 223
9 533 9 552 0 679 -8 735 -45 33 -21 62 -12 75 23 26 68 96 233 122 287 32 65
37 93 18 100 -41 12 -433 19 -1182 19 -650 1 -850 -2 -853 -11z"/>
<path d="M6243 2268 c-16 -26 -43 -82 -43 -90 0 -4 -20 -51 -45 -104 -25 -52
-45 -98 -45 -101 0 -3 -34 -76 -76 -162 -79 -163 -89 -185 -149 -316 -39 -85
-132 -280 -145 -305 -46 -86 -149 -300 -207 -430 -13 -30 -28 -62 -34 -70 -5
-8 -12 -22 -15 -30 -3 -8 -19 -43 -35 -77 -16 -35 -29 -69 -29 -77 0 -8 -4
-17 -9 -21 -5 -3 -27 -51 -49 -108 -22 -56 -52 -129 -66 -162 -17 -38 -25 -68
-21 -84 6 -22 9 -23 63 -18 31 3 91 1 132 -4 168 -22 166 -22 182 -6 8 8 29
58 46 110 40 119 70 190 167 392 24 50 57 122 75 160 18 39 57 122 87 185 30
63 60 129 68 145 135 294 156 335 173 335 7 0 16 -10 21 -22 11 -28 69 -148
81 -168 13 -20 90 -189 90 -196 0 -3 35 -79 79 -168 130 -265 171 -354 171
-367 0 -7 6 -20 14 -28 7 -9 17 -26 21 -39 l7 -23 -371 2 c-217 1 -375 -1
-380 -7 -14 -15 -64 -245 -65 -301 l-1 -52 690 -3 c666 -3 690 -2 693 16 3 15
-80 220 -108 266 -11 17 -25 46 -92 188 -26 57 -48 105 -48 107 0 2 -27 61
-61 131 -61 131 -79 167 -233 487 -47 97 -86 179 -86 182 0 3 -25 58 -56 123
-31 64 -60 126 -64 137 -5 11 -57 119 -115 240 -59 121 -114 236 -123 255 -40
82 -69 108 -89 78z"/>
<path d="M8913 1617 c-39 -15 -116 -87 -138 -130 -75 -144 -71 -264 12 -375
37 -49 71 -63 122 -50 51 13 87 47 124 119 15 30 43 81 62 114 19 33 39 71 45
85 5 14 15 33 20 42 15 26 12 50 -10 100 -25 57 -47 76 -106 94 -56 17 -87 17
-131 1z"/>
</g>
</svg>
